<svg width="1277" height="1277" viewBox="0 0 1277 1277" fill="none" xmlns="http://www.w3.org/2000/svg">
<path d="M922.767 341.638C922.767 348.857 928.619 354.709 935.837 354.709H1046.93C1054.15 354.709 1060 360.561 1060 367.78V910.22C1060 917.439 1054.15 923.291 1046.93 923.291H935.837C928.619 923.291 922.767 929.143 922.767 936.362V1040.93C922.767 1048.15 916.916 1054 909.698 1054H576.419C569.2 1054 563.349 1048.15 563.349 1040.93V923.291C563.349 916.073 569.2 910.22 576.419 910.22H896.628C903.846 910.22 909.698 904.368 909.698 897.15V380.85C909.698 373.632 903.846 367.78 896.628 367.78H380.372C373.154 367.78 367.302 373.632 367.302 380.85V910.22C367.302 917.439 361.451 923.291 354.233 923.291H230.07C222.852 923.291 217 917.439 217 910.22V367.78C217 360.561 222.852 354.709 230.07 354.709H341.163C348.381 354.709 354.233 348.857 354.233 341.638V237.071C354.233 229.852 360.084 224 367.302 224H909.698C916.916 224 922.767 229.852 922.767 237.071V341.638Z" fill="#9224E9"/>
<path d="M556.814 570.378C556.814 563.159 562.665 557.307 569.884 557.307H707.116C714.335 557.307 720.186 563.159 720.186 570.378V701.087C720.186 708.305 714.335 714.157 707.116 714.157H569.884C562.665 714.157 556.814 708.305 556.814 701.087V570.378Z" fill="#9224E9"/>
</svg>
