<svg xmlns="http://www.w3.org/2000/svg" viewBox="0 0 890 151" role="img" aria-label="Pixel Theory">
  <!-- Pixel Theory wordmark, in Post-Click OS ink purple. Pure vector paths (no font
       dependency) so it renders identically wherever Cloudflare loads it as the Access
       login logo. Lives in public/ so it deploys to /login-logo.svg on pages.thepixeltheory.app. -->
  <g fill="#2c0f44">
    <path d="M108 18C108 19.1046 108.895 20 110 20H127C128.105 20 129 20.8954 129 22V105C129 106.105 128.105 107 127 107H110C108.895 107 108 107.895 108 109V125C108 126.105 107.105 127 106 127H55C53.8954 127 53 126.105 53 125V107C53 105.895 53.8954 105 55 105H104C105.105 105 106 104.105 106 103V24C106 22.8954 105.105 22 104 22H25C23.8954 22 23 22.8954 23 24V105C23 106.105 22.1046 107 21 107H2C0.89543 107 0 106.105 0 105V22C0 20.8954 0.895431 20 2 20H19C20.1046 20 21 19.1046 21 18V2C21 0.895431 21.8954 0 23 0H106C107.105 0 108 0.895431 108 2V18Z" />
    <path d="M52 53C52 51.8954 52.8954 51 54 51H75C76.1046 51 77 51.8954 77 53V73C77 74.1046 76.1046 75 75 75H54C52.8954 75 52 74.1046 52 73V53Z" />
    <path d="M240.245 29.66C238.775 27.97 236.855 26.3 234.375 24.87C231.145 23.02 227.445 22.12 223.725 22.13L174.505 22.22V108.14H192.985V81.06L222.655 80.78C228.665 80.72 234.515 78.57 238.945 74.51C242.265 71.45 245.075 67.13 245.075 61.29V43.02C245.075 38.14 243.445 33.34 240.245 29.66ZM227.885 63.99H192.465V39.55H227.885V63.99Z" />
    <path d="M256.662 44.861V107.733H274.815V45.082L256.662 44.861Z" />
    <path d="M284.556 45.082L308.243 76.297L284.113 107.954H309.034L321.182 92.127L333.235 107.954H358.275L333.259 76.297L358.184 45.033L333.702 45.126L321.305 60.544L308.661 45.033L284.556 45.082Z" />
    <path d="M430.012 21.648V90.631H447.789V21.841L430.012 21.648Z" />
    <path d="M447.789 107.635V90.631H465.373V107.828L447.789 107.635Z" />
    <path d="M490.855 21.717V39.806H517.008V107.804H535.315V39.806H560.814V21.717H490.855Z" />
    <path d="M569.824 21.499V108.022H587.502V62.69H614.864V108.022H631.989V65.523C631.989 65.523 631.646 44.911 607.236 44.039H587.839V21.498L569.824 21.499Z" />
    <path d="M744.165 43.91C726.565 43.91 712.295 58.18 712.295 75.78C712.295 93.38 726.565 107.65 744.165 107.65C761.765 107.65 776.035 93.38 776.035 75.78C776.035 58.18 761.765 43.91 744.165 43.91ZM744.165 91.07C735.685 91.07 728.815 84.2 728.815 75.72C728.815 67.24 735.685 60.37 744.165 60.37C752.645 60.37 759.515 67.24 759.515 75.72C759.515 84.2 752.645 91.07 744.165 91.07Z" />
    <path d="M704.61 75.782C704.61 58.182 690.34 43.912 672.74 43.912C655.14 43.912 640.88 58.182 640.88 75.782C640.88 93.382 655.14 107.652 672.74 107.652C686.54 107.652 698.29 98.882 702.72 86.612H681.44C681.44 86.612 678.37 91.212 669.28 90.002C660.19 88.802 658.33 79.822 658.33 79.822H704.35C704.52 78.502 704.61 77.152 704.61 75.782ZM659.2 68.412C659.2 68.412 662.92 60.612 672.14 60.752C681.35 60.902 684.55 68.412 684.55 68.412H659.2Z" />
    <path d="M422.692 75.782C422.692 58.182 408.422 43.912 390.822 43.912C373.222 43.912 358.962 58.182 358.962 75.782C358.962 93.382 373.222 107.652 390.822 107.652C404.622 107.652 416.372 98.882 420.802 86.612H399.522C399.522 86.612 396.452 91.212 387.362 90.002C378.272 88.802 376.412 79.822 376.412 79.822H422.432C422.602 78.502 422.692 77.152 422.692 75.782ZM377.282 68.412C377.282 68.412 381.002 60.612 390.222 60.752C399.432 60.902 402.632 68.412 402.632 68.412H377.282Z" />
    <path d="M802.384 61.791V107.726H784.31L784.432 64.953C784.432 64.953 784.504 54.969 793.985 48.336C797.871 45.618 802.569 44.306 807.311 44.306H821.934V61.631L802.384 61.791Z" />
    <path d="M831.062 44.596H848.87V89.015H872.08V45.196H889.287V79.147C889.287 85.769 887.196 92.284 883.056 97.453C878.849 102.705 871.93 107.553 860.675 107.823C847.544 108.138 840.039 101.394 835.871 94.916C832.647 89.904 831.062 84.012 831.062 78.053V44.596Z" />
    <path d="M872.242 122.572V105.615H889.891V122.918C889.891 122.918 872.242 123.033 872.242 122.572Z" />
    <path d="M830.6 140.221V122.802H871.781V140.221H830.6Z" />
  </g>
</svg>
